# Blender 5.2.2 LTS
# www.blender.org
mtllib CalleDerecha.mtl
o Plane.003
v 10.000000 0.000000 -10.000000
v 10.000000 0.000000 -2.000000
v 10.000000 0.000000 -6.000000
v 10.000000 0.000000 -0.150000
v 10.000000 0.170000 -10.000000
v 10.000000 0.170000 -6.000000
v 10.000000 0.000000 0.000000
v 10.000000 0.000000 10.000000
v 10.000000 0.000000 2.000000
v 10.000000 0.000000 6.000000
v 10.000000 0.000000 0.150000
v 10.000000 0.170000 10.000000
v 10.000000 0.170000 6.000000
v 7.389476 0.000000 -10.171101
v 6.345267 0.000000 -2.239542
v 6.867371 0.000000 -6.205321
v 6.103793 0.000000 -0.405369
v 7.389476 0.170000 -10.171101
v 6.867371 0.170000 -6.205321
v 6.084214 0.000000 -0.256653
v 4.778952 0.000000 9.657795
v 5.823162 0.000000 1.726237
v 5.301056 0.000000 5.692017
v 6.064635 0.000000 -0.107936
v 4.778952 0.170000 9.657795
v 5.301056 0.170000 5.692017
v 4.823620 0.000000 -10.681484
v 2.753068 0.000000 -2.954077
v 3.788345 0.000000 -6.817780
v 2.274253 0.000000 -1.167114
v 4.823620 0.170000 -10.681484
v 3.788345 0.170000 -6.817780
v 2.235430 0.000000 -1.022226
v -0.352761 0.000000 8.637032
v 1.717792 0.000000 0.909626
v 0.682516 0.000000 4.773329
v 2.196607 0.000000 -0.877337
v -0.352761 0.170000 8.637032
v 0.682516 0.170000 4.773329
v 2.346331 0.000000 -11.522409
v -0.715137 0.000000 -4.131375
v 0.815597 0.000000 -7.826893
v -1.423101 0.000000 -2.422198
v 2.346331 0.170000 -11.522409
v 0.815597 0.170000 -7.826893
v -1.480504 0.000000 -2.283616
v -5.307338 0.000000 6.955178
v -2.245871 0.000000 -0.435857
v -3.776605 0.000000 3.259661
v -1.537906 0.000000 -2.145034
v -5.307338 0.170000 6.955178
v -3.776605 0.170000 3.259661
v 0.000000 0.000000 -12.679491
v -4.000000 0.000000 -5.751288
v -2.000000 0.000000 -9.215389
v -4.925000 0.000000 -4.149141
v 0.000000 0.170000 -12.679491
v -2.000000 0.170000 -9.215389
v -5.000000 0.000000 -4.019238
v -10.000000 0.000000 4.641016
v -6.000000 0.000000 -2.287187
v -8.000000 0.000000 1.176915
v -5.075000 0.000000 -3.889334
v -10.000000 0.170000 4.641016
v -8.000000 0.170000 1.176915
v -2.175227 0.000000 -14.132933
v -7.045319 0.000000 -7.786107
v -4.610272 0.000000 -10.959519
v -8.171527 0.000000 -6.318403
v -2.175227 0.170000 -14.132933
v -4.610272 0.170000 -10.959519
v -8.262841 0.000000 -6.199400
v -14.350454 0.000000 1.734133
v -9.480364 0.000000 -4.612693
v -11.915409 0.000000 -1.439281
v -8.354156 0.000000 -6.080397
v -14.350454 0.170000 1.734133
v -11.915409 0.170000 -1.439281
v -4.142136 0.000000 -15.857863
v -9.798989 0.000000 -10.201010
v -6.970562 0.000000 -13.029437
v -11.107138 0.000000 -8.892862
v -4.142136 0.170000 -15.857863
v -6.970562 0.170000 -13.029437
v -11.213202 0.000000 -8.786797
v -18.284269 0.000000 -1.715729
v -12.627416 0.000000 -7.372583
v -15.455843 0.000000 -4.544156
v -11.319267 0.000000 -8.680731
v -18.284269 0.170000 -1.715729
v -15.455843 0.170000 -4.544156
v -5.867066 0.000000 -17.824770
v -12.213893 0.000000 -12.954679
v -9.040480 0.000000 -15.389725
v -13.681595 0.000000 -11.828470
v -5.867066 0.170000 -17.824770
v -9.040480 0.170000 -15.389725
v -13.800600 0.000000 -11.737156
v -21.734133 0.000000 -5.649543
v -15.387306 0.000000 -10.519633
v -18.560719 0.000000 -8.084588
v -13.919601 0.000000 -11.645842
v -21.734133 0.170000 -5.649543
v -18.560719 0.170000 -8.084588
v -7.320508 0.000000 -20.000000
v -14.248711 0.000000 -16.000000
v -10.784609 0.000000 -18.000000
v -15.850859 0.000000 -15.075001
v -7.320508 0.170000 -20.000000
v -10.784609 0.170000 -18.000000
v -15.980761 0.000000 -15.000000
v -24.641016 0.000000 -10.000001
v -17.712812 0.000000 -14.000001
v -21.176914 0.000000 -12.000000
v -16.110666 0.000000 -14.925001
v -24.641016 0.170000 -10.000001
v -21.176914 0.170000 -12.000000
v -8.477588 0.000000 -22.346329
v -15.868624 0.000000 -19.284863
v -12.173107 0.000000 -20.815598
v -17.577801 0.000000 -18.576899
v -8.477588 0.170000 -22.346329
v -12.173107 0.170000 -20.815598
v -17.716383 0.000000 -18.519497
v -26.955177 0.000000 -14.692661
v -19.564142 0.000000 -17.754129
v -23.259659 0.000000 -16.223396
v -17.854965 0.000000 -18.462093
v -26.955177 0.170000 -14.692661
v -23.259659 0.170000 -16.223396
v -9.318514 0.000000 -24.823618
v -17.045919 0.000000 -22.753065
v -13.182217 0.000000 -23.788340
v -18.832882 0.000000 -22.274248
v -9.318514 0.170000 -24.823618
v -13.182217 0.170000 -23.788340
v -18.977772 0.000000 -22.235428
v -28.637028 0.000000 -19.647236
v -20.909624 0.000000 -21.717787
v -24.773327 0.000000 -20.682510
v -19.122660 0.000000 -22.196602
v -28.637028 0.170000 -19.647236
v -24.773327 0.170000 -20.682510
v -9.828899 0.000000 -27.389477
v -17.760456 0.000000 -26.345268
v -13.794678 0.000000 -26.867373
v -19.594629 0.000000 -26.103794
v -9.828899 0.170000 -27.389477
v -13.794678 0.170000 -26.867373
v -19.743347 0.000000 -26.084215
v -29.657795 0.000000 -24.778955
v -21.726236 0.000000 -25.823164
v -25.692015 0.000000 -25.301060
v -19.892063 0.000000 -26.064636
v -29.657795 0.170000 -24.778955
v -25.692015 0.170000 -25.301060
v -10.000000 0.000000 -29.999998
v -18.000000 0.000000 -29.999998
v -14.000000 0.000000 -29.999998
v -19.849998 0.000000 -29.999998
v -10.000000 0.170000 -29.999998
v -14.000000 0.170000 -29.999998
v -19.999998 0.000000 -29.999998
v -30.000000 0.000000 -30.000000
v -21.999998 0.000000 -29.999998
v -26.000000 0.000000 -29.999998
v -20.149998 0.000000 -29.999998
v -30.000000 0.170000 -30.000000
v -26.000000 0.170000 -29.999998
vn 0.0654 -0.0000 -0.9979
vn -0.0000 1.0000 -0.0000
vn -0.0654 -0.0000 0.9979
vn -0.1951 -0.0000 0.9808
vn 0.1951 -0.0000 -0.9808
vn 0.3214 -0.0000 -0.9469
vn -0.3214 -0.0000 0.9469
vn -0.4423 -0.0000 0.8969
vn 0.4423 -0.0000 -0.8969
vn -0.5556 -0.0000 0.8315
vn 0.5556 -0.0000 -0.8315
vn 0.6593 -0.0000 -0.7518
vn -0.6593 -0.0000 0.7518
vn -0.7518 -0.0000 0.6593
vn 0.7518 -0.0000 -0.6593
vn -0.8315 -0.0000 0.5556
vn 0.8315 -0.0000 -0.5556
vn 0.8969 -0.0000 -0.4423
vn -0.8969 -0.0000 0.4423
vn -0.9469 -0.0000 0.3214
vn 0.9469 -0.0000 -0.3214
vn -0.9808 -0.0000 0.1951
vn 0.9808 -0.0000 -0.1951
vn 0.9979 -0.0000 -0.0654
vn -0.9979 -0.0000 0.0654
vt 0.000000 0.000000
s 0
usemtl calle.001
f 2/1/2 15/1/2 17/1/2 4/1/2
f 10/1/2 9/1/2 22/1/2 23/1/2
f 3/1/2 16/1/2 15/1/2 2/1/2
f 9/1/2 11/1/2 24/1/2 22/1/2
f 16/1/2 29/1/2 28/1/2 15/1/2
f 24/1/2 20/1/2 33/1/2 37/1/2
f 17/1/2 30/1/2 33/1/2 20/1/2
f 22/1/2 24/1/2 37/1/2 35/1/2
f 15/1/2 28/1/2 30/1/2 17/1/2
f 23/1/2 22/1/2 35/1/2 36/1/2
f 28/1/2 41/1/2 43/1/2 30/1/2
f 36/1/2 35/1/2 48/1/2 49/1/2
f 29/1/2 42/1/2 41/1/2 28/1/2
f 35/1/2 37/1/2 50/1/2 48/1/2
f 43/1/2 56/1/2 59/1/2 46/1/2
f 48/1/2 50/1/2 63/1/2 61/1/2
f 41/1/2 54/1/2 56/1/2 43/1/2
f 49/1/2 48/1/2 61/1/2 62/1/2
f 42/1/2 55/1/2 54/1/2 41/1/2
f 50/1/2 46/1/2 59/1/2 63/1/2
f 55/1/2 68/1/2 67/1/2 54/1/2
f 61/1/2 63/1/2 76/1/2 74/1/2
f 54/1/2 67/1/2 69/1/2 56/1/2
f 62/1/2 61/1/2 74/1/2 75/1/2
f 67/1/2 80/1/2 82/1/2 69/1/2
f 75/1/2 74/1/2 87/1/2 88/1/2
f 68/1/2 81/1/2 80/1/2 67/1/2
f 76/1/2 72/1/2 85/1/2 89/1/2
f 69/1/2 82/1/2 85/1/2 72/1/2
f 74/1/2 76/1/2 89/1/2 87/1/2
f 87/1/2 89/1/2 102/1/2 100/1/2
f 80/1/2 93/1/2 95/1/2 82/1/2
f 88/1/2 87/1/2 100/1/2 101/1/2
f 81/1/2 94/1/2 93/1/2 80/1/2
f 94/1/2 107/1/2 106/1/2 93/1/2
f 102/1/2 98/1/2 111/1/2 115/1/2
f 95/1/2 108/1/2 111/1/2 98/1/2
f 100/1/2 102/1/2 115/1/2 113/1/2
f 93/1/2 106/1/2 108/1/2 95/1/2
f 101/1/2 100/1/2 113/1/2 114/1/2
f 106/1/2 119/1/2 121/1/2 108/1/2
f 114/1/2 113/1/2 126/1/2 127/1/2
f 107/1/2 120/1/2 119/1/2 106/1/2
f 113/1/2 115/1/2 128/1/2 126/1/2
f 121/1/2 134/1/2 137/1/2 124/1/2
f 126/1/2 128/1/2 141/1/2 139/1/2
f 119/1/2 132/1/2 134/1/2 121/1/2
f 127/1/2 126/1/2 139/1/2 140/1/2
f 120/1/2 133/1/2 132/1/2 119/1/2
f 128/1/2 124/1/2 137/1/2 141/1/2
f 133/1/2 146/1/2 145/1/2 132/1/2
f 139/1/2 141/1/2 154/1/2 152/1/2
f 132/1/2 145/1/2 147/1/2 134/1/2
f 140/1/2 139/1/2 152/1/2 153/1/2
f 152/1/2 154/1/2 167/1/2 165/1/2
f 145/1/2 158/1/2 160/1/2 147/1/2
f 153/1/2 152/1/2 165/1/2 166/1/2
f 146/1/2 159/1/2 158/1/2 145/1/2
f 154/1/2 150/1/2 163/1/2 167/1/2
f 147/1/2 160/1/2 163/1/2 150/1/2
usemtl Lineas_blancas.001
f 11/1/2 7/1/2 20/1/2 24/1/2
f 4/1/2 17/1/2 20/1/2 7/1/2
f 37/1/2 33/1/2 46/1/2 50/1/2
f 30/1/2 43/1/2 46/1/2 33/1/2
f 63/1/2 59/1/2 72/1/2 76/1/2
f 56/1/2 69/1/2 72/1/2 59/1/2
f 82/1/2 95/1/2 98/1/2 85/1/2
f 89/1/2 85/1/2 98/1/2 102/1/2
f 115/1/2 111/1/2 124/1/2 128/1/2
f 108/1/2 121/1/2 124/1/2 111/1/2
f 141/1/2 137/1/2 150/1/2 154/1/2
f 134/1/2 147/1/2 150/1/2 137/1/2
usemtl Banqueta.001
f 1/1/1 14/1/1 18/1/1 5/1/1
f 13/1/1 10/1/1 23/1/1 26/1/1
f 6/1/3 19/1/3 16/1/3 3/1/3
f 12/1/2 13/1/2 26/1/2 25/1/2
f 5/1/2 18/1/2 19/1/2 6/1/2
f 8/1/3 12/1/3 25/1/3 21/1/3
f 18/1/2 31/1/2 32/1/2 19/1/2
f 21/1/4 25/1/4 38/1/4 34/1/4
f 14/1/5 27/1/5 31/1/5 18/1/5
f 26/1/5 23/1/5 36/1/5 39/1/5
f 19/1/4 32/1/4 29/1/4 16/1/4
f 25/1/2 26/1/2 39/1/2 38/1/2
f 39/1/6 36/1/6 49/1/6 52/1/6
f 32/1/7 45/1/7 42/1/7 29/1/7
f 38/1/2 39/1/2 52/1/2 51/1/2
f 31/1/2 44/1/2 45/1/2 32/1/2
f 34/1/7 38/1/7 51/1/7 47/1/7
f 27/1/6 40/1/6 44/1/6 31/1/6
f 47/1/8 51/1/8 64/1/8 60/1/8
f 40/1/9 53/1/9 57/1/9 44/1/9
f 52/1/9 49/1/9 62/1/9 65/1/9
f 45/1/8 58/1/8 55/1/8 42/1/8
f 51/1/2 52/1/2 65/1/2 64/1/2
f 44/1/2 57/1/2 58/1/2 45/1/2
f 64/1/2 65/1/2 78/1/2 77/1/2
f 57/1/2 70/1/2 71/1/2 58/1/2
f 60/1/10 64/1/10 77/1/10 73/1/10
f 53/1/11 66/1/11 70/1/11 57/1/11
f 65/1/11 62/1/11 75/1/11 78/1/11
f 58/1/10 71/1/10 68/1/10 55/1/10
f 66/1/12 79/1/12 83/1/12 70/1/12
f 78/1/12 75/1/12 88/1/12 91/1/12
f 71/1/13 84/1/13 81/1/13 68/1/13
f 77/1/2 78/1/2 91/1/2 90/1/2
f 70/1/2 83/1/2 84/1/2 71/1/2
f 73/1/13 77/1/13 90/1/13 86/1/13
f 86/1/14 90/1/14 103/1/14 99/1/14
f 79/1/15 92/1/15 96/1/15 83/1/15
f 91/1/15 88/1/15 101/1/15 104/1/15
f 84/1/14 97/1/14 94/1/14 81/1/14
f 90/1/2 91/1/2 104/1/2 103/1/2
f 83/1/2 96/1/2 97/1/2 84/1/2
f 97/1/16 110/1/16 107/1/16 94/1/16
f 103/1/2 104/1/2 117/1/2 116/1/2
f 96/1/2 109/1/2 110/1/2 97/1/2
f 99/1/16 103/1/16 116/1/16 112/1/16
f 92/1/17 105/1/17 109/1/17 96/1/17
f 104/1/17 101/1/17 114/1/17 117/1/17
f 105/1/18 118/1/18 122/1/18 109/1/18
f 117/1/18 114/1/18 127/1/18 130/1/18
f 110/1/19 123/1/19 120/1/19 107/1/19
f 116/1/2 117/1/2 130/1/2 129/1/2
f 109/1/2 122/1/2 123/1/2 110/1/2
f 112/1/19 116/1/19 129/1/19 125/1/19
f 122/1/2 135/1/2 136/1/2 123/1/2
f 125/1/20 129/1/20 142/1/20 138/1/20
f 118/1/21 131/1/21 135/1/21 122/1/21
f 130/1/21 127/1/21 140/1/21 143/1/21
f 123/1/20 136/1/20 133/1/20 120/1/20
f 129/1/2 130/1/2 143/1/2 142/1/2
f 136/1/22 149/1/22 146/1/22 133/1/22
f 142/1/2 143/1/2 156/1/2 155/1/2
f 135/1/2 148/1/2 149/1/2 136/1/2
f 138/1/22 142/1/22 155/1/22 151/1/22
f 131/1/23 144/1/23 148/1/23 135/1/23
f 143/1/23 140/1/23 153/1/23 156/1/23
f 144/1/24 157/1/24 161/1/24 148/1/24
f 156/1/24 153/1/24 166/1/24 169/1/24
f 149/1/25 162/1/25 159/1/25 146/1/25
f 155/1/2 156/1/2 169/1/2 168/1/2
f 148/1/2 161/1/2 162/1/2 149/1/2
f 151/1/25 155/1/25 168/1/25 164/1/25
