# Blender 5.2.2 LTS
# www.blender.org
mtllib CalleNormal.mtl
o Plane.002
v -10.000000 0.000000 -0.150000
v 6.666666 0.000000 -0.150000
v -10.000000 0.000000 -10.000000
v 10.000000 0.000000 -10.000000
v -10.000000 0.000000 -6.000000
v -10.000000 0.000000 -2.000000
v 3.333333 0.000000 -0.150000
v -0.000000 0.000000 -0.150000
v -3.333334 0.000000 -0.150000
v -6.666667 0.000000 -0.150000
v 10.000000 0.000000 -2.000000
v 10.000000 0.000000 -6.000000
v 10.000000 0.000000 -0.150000
v -3.333334 0.170000 -6.000000
v -0.000000 0.170000 -6.000000
v 3.333333 0.170000 -6.000000
v 6.666666 0.170000 -6.000000
v 6.666666 0.000000 -10.000000
v 3.333333 0.000000 -10.000000
v -0.000000 0.000000 -10.000000
v -3.333334 0.000000 -10.000000
v -6.666667 0.000000 -10.000000
v -3.333334 0.170000 -10.000000
v -0.000000 0.170000 -10.000000
v 3.333333 0.170000 -10.000000
v 6.666666 0.170000 -10.000000
v -6.666667 0.170000 -6.000000
v -10.000000 0.170000 -6.000000
v -10.000000 0.170000 -10.000000
v -6.666667 0.170000 -10.000000
v 10.000000 0.170000 -10.000000
v 10.000000 0.170000 -6.000000
v 6.666666 0.000000 -2.000000
v 3.333333 0.000000 -2.000000
v -0.000000 0.000000 -2.000000
v -3.333334 0.000000 -2.000000
v -6.666667 0.000000 -2.000000
v 6.666666 0.000000 -6.000000
v 3.333333 0.000000 -6.000000
v -0.000000 0.000000 -6.000000
v -3.333334 0.000000 -6.000000
v -6.666667 0.000000 -6.000000
v -10.000000 0.000000 0.000000
v 10.000000 0.000000 0.000000
v -6.666667 0.000000 0.000000
v -3.333334 0.000000 0.000000
v -0.000000 0.000000 0.000000
v 3.333333 0.000000 0.000000
v 6.666666 0.000000 0.000000
v -10.000000 0.000000 0.150000
v 6.666666 0.000000 0.150000
v -10.000000 0.000000 10.000000
v 10.000000 0.000000 10.000000
v -10.000000 0.000000 6.000000
v -10.000000 0.000000 2.000000
v 3.333333 0.000000 0.150000
v -0.000000 0.000000 0.150000
v -3.333334 0.000000 0.150000
v -6.666667 0.000000 0.150000
v 10.000000 0.000000 2.000000
v 10.000000 0.000000 6.000000
v 10.000000 0.000000 0.150000
v -3.333334 0.170000 6.000000
v -0.000000 0.170000 6.000000
v 3.333333 0.170000 6.000000
v 6.666666 0.170000 6.000000
v 6.666666 0.000000 10.000000
v 3.333333 0.000000 10.000000
v -0.000000 0.000000 10.000000
v -3.333334 0.000000 10.000000
v -6.666667 0.000000 10.000000
v -3.333334 0.170000 10.000000
v -0.000000 0.170000 10.000000
v 3.333333 0.170000 10.000000
v 6.666666 0.170000 10.000000
v -6.666667 0.170000 6.000000
v -10.000000 0.170000 6.000000
v -10.000000 0.170000 10.000000
v -6.666667 0.170000 10.000000
v 10.000000 0.170000 10.000000
v 10.000000 0.170000 6.000000
v 6.666666 0.000000 2.000000
v 3.333333 0.000000 2.000000
v -0.000000 0.000000 2.000000
v -3.333334 0.000000 2.000000
v -6.666667 0.000000 2.000000
v 6.666666 0.000000 6.000000
v 3.333333 0.000000 6.000000
v -0.000000 0.000000 6.000000
v -3.333334 0.000000 6.000000
v -6.666667 0.000000 6.000000
vn -0.0000 -0.0000 1.0000
vn -0.0000 1.0000 -0.0000
vn -0.0000 -0.0000 -1.0000
vt 0.333333 0.800000
vt 0.500000 0.800000
vt 0.166667 0.500000
vt 0.333333 0.500000
vt 0.333333 0.507500
vt 0.166667 0.507500
vt 0.500000 0.500000
vt 0.500000 0.507500
vt 0.833333 0.507500
vt 1.000000 0.507500
vt 1.000000 0.600000
vt 0.833333 0.600000
vt 1.000000 0.800000
vt 0.833333 0.800000
vt 0.000000 0.600000
vt 0.166667 0.600000
vt 0.166667 0.800000
vt 0.000000 0.800000
vt 0.333333 0.600000
vt 0.500000 0.600000
vt 0.666667 0.600000
vt 0.666667 0.800000
vt 0.000000 0.507500
vt 0.666667 0.507500
vt 0.666667 0.500000
vt 0.833333 0.500000
vt 0.000000 0.000000
vt 0.833333 1.000000
vt 0.666667 1.000000
vt 0.500000 1.000000
vt 0.333333 1.000000
vt 0.166667 1.000000
vt 0.000000 1.000000
vt 1.000000 1.000000
vt 0.000000 0.500000
vt 1.000000 0.500000
s 0
usemtl calle
f 45/3/2 46/4/2 9/5/2 10/6/2
f 2/9/2 13/10/2 11/11/2 33/12/2
f 33/12/2 11/11/2 12/13/2 38/14/2
f 6/15/2 37/16/2 42/17/2 5/18/2
f 37/16/2 36/19/2 41/1/2 42/17/2
f 36/19/2 35/20/2 40/2/2 41/1/2
f 35/20/2 34/21/2 39/22/2 40/2/2
f 34/21/2 33/12/2 38/14/2 39/22/2
f 1/23/2 10/6/2 37/16/2 6/15/2
f 10/6/2 9/5/2 36/19/2 37/16/2
f 9/5/2 8/8/2 35/20/2 36/19/2
f 8/8/2 7/24/2 34/21/2 35/20/2
f 7/24/2 2/9/2 33/12/2 34/21/2
f 47/7/2 48/25/2 7/24/2 8/8/2
f 49/26/2 44/36/2 13/10/2 2/9/2
f 45/3/2 59/6/2 58/5/2 46/4/2
f 51/9/2 82/12/2 60/11/2 62/10/2
f 82/12/2 87/14/2 61/13/2 60/11/2
f 55/15/2 54/18/2 91/17/2 86/16/2
f 86/16/2 91/17/2 90/1/2 85/19/2
f 85/19/2 90/1/2 89/2/2 84/20/2
f 84/20/2 89/2/2 88/22/2 83/21/2
f 83/21/2 88/22/2 87/14/2 82/12/2
f 50/23/2 55/15/2 86/16/2 59/6/2
f 59/6/2 86/16/2 85/19/2 58/5/2
f 58/5/2 85/19/2 84/20/2 57/8/2
f 57/8/2 84/20/2 83/21/2 56/24/2
f 56/24/2 83/21/2 82/12/2 51/9/2
f 47/7/2 57/8/2 56/24/2 48/25/2
f 49/26/2 51/9/2 62/10/2 44/36/2
usemtl Lineas_blancas
f 46/4/2 47/7/2 8/8/2 9/5/2
f 48/25/2 49/26/2 2/9/2 7/24/2
f 43/35/2 45/3/2 10/6/2 1/23/2
f 46/4/2 58/5/2 57/8/2 47/7/2
f 48/25/2 56/24/2 51/9/2 49/26/2
f 43/35/2 50/23/2 59/6/2 45/3/2
usemtl Banqueta
f 41/1/1 40/2/1 15/2/1 14/1/1
f 22/27/3 3/27/3 29/27/3 30/27/3
f 21/27/3 22/27/3 30/27/3 23/27/3
f 20/27/3 21/27/3 23/27/3 24/27/3
f 19/27/3 20/27/3 24/27/3 25/27/3
f 42/17/1 41/1/1 14/1/1 27/17/1
f 5/18/1 42/17/1 27/17/1 28/18/1
f 18/27/3 19/27/3 25/27/3 26/27/3
f 4/27/3 18/27/3 26/27/3 31/27/3
f 40/2/1 39/22/1 16/22/1 15/2/1
f 39/22/1 38/14/1 17/14/1 16/22/1
f 38/14/1 12/13/1 32/13/1 17/14/1
f 16/22/2 17/14/2 26/28/2 25/29/2
f 15/2/2 16/22/2 25/29/2 24/30/2
f 14/1/2 15/2/2 24/30/2 23/31/2
f 27/17/2 14/1/2 23/31/2 30/32/2
f 28/18/2 27/17/2 30/32/2 29/33/2
f 17/14/2 32/13/2 31/34/2 26/28/2
f 90/1/3 63/1/3 64/2/3 89/2/3
f 71/27/1 79/27/1 78/27/1 52/27/1
f 70/27/1 72/27/1 79/27/1 71/27/1
f 69/27/1 73/27/1 72/27/1 70/27/1
f 68/27/1 74/27/1 73/27/1 69/27/1
f 91/17/3 76/17/3 63/1/3 90/1/3
f 54/18/3 77/18/3 76/17/3 91/17/3
f 67/27/1 75/27/1 74/27/1 68/27/1
f 53/27/1 80/27/1 75/27/1 67/27/1
f 89/2/3 64/2/3 65/22/3 88/22/3
f 88/22/3 65/22/3 66/14/3 87/14/3
f 87/14/3 66/14/3 81/13/3 61/13/3
f 65/22/2 74/29/2 75/28/2 66/14/2
f 64/2/2 73/30/2 74/29/2 65/22/2
f 63/1/2 72/31/2 73/30/2 64/2/2
f 76/17/2 79/32/2 72/31/2 63/1/2
f 77/18/2 78/33/2 79/32/2 76/17/2
f 66/14/2 75/28/2 80/34/2 81/13/2
