# Blender 5.2.2 LTS
# www.blender.org
mtllib CalleMitadArriba.mtl
o Plane.007
v -10.000000 0.000000 -10.000000
v -10.000000 0.000000 -6.000000
v -10.000000 0.000000 -2.000000
v -10.000000 0.000000 0.000000
v -0.000000 0.000000 -10.000000
v -3.333334 0.000000 -10.000000
v -6.666667 0.000000 -10.000000
v -0.000000 0.000000 -0.150000
v -3.333334 0.000000 -0.150000
v -6.666667 0.000000 -0.150000
v -10.000000 0.000000 -0.150000
v -0.000000 0.000000 -2.000000
v -3.333334 0.000000 -2.000000
v -6.666667 0.000000 -2.000000
v -0.000000 0.000000 -6.000000
v -3.333334 0.000000 -6.000000
v -6.666667 0.000000 -6.000000
v -0.000000 0.000000 0.000000
v -3.333334 0.000000 0.000000
v -6.666667 0.000000 0.000000
v -6.666667 0.170000 -10.000000
v -10.000000 0.170000 -10.000000
v -10.000000 0.170000 -6.000000
v -6.666667 0.170000 -6.000000
v -10.000000 0.000000 10.000000
v -10.000000 0.000000 6.000000
v -10.000000 0.000000 2.000000
v -0.000000 0.000000 10.000000
v -3.333334 0.000000 10.000000
v -6.666667 0.000000 10.000000
v -0.000000 0.000000 0.150000
v -3.333334 0.000000 0.150000
v -6.666667 0.000000 0.150000
v -10.000000 0.000000 0.150000
v -0.000000 0.000000 2.000000
v -3.333334 0.000000 2.000000
v -6.666667 0.000000 2.000000
v -0.000000 0.000000 6.000000
v -3.333334 0.000000 6.000000
v -6.666667 0.000000 6.000000
v -6.666667 0.170000 10.000000
v -10.000000 0.170000 10.000000
v -10.000000 0.170000 6.000000
v -6.666667 0.170000 6.000000
vn -1.0000 -0.0000 -0.0000
vn -0.0000 1.0000 -0.0000
vn 1.0000 -0.0000 -0.0000
vn -0.0000 -0.0000 1.0000
vn -0.0000 -0.0000 -1.0000
vt 0.000000 0.000000
vt 0.000000 0.600000
vt 0.166667 0.600000
vt 0.166667 0.800000
vt 0.000000 0.800000
vt 0.333333 0.600000
vt 0.333333 0.800000
vt 0.500000 0.600000
vt 0.500000 0.800000
vt 0.000000 0.507500
vt 0.166667 0.507500
vt 0.333333 0.507500
vt 0.500000 0.507500
vt 0.000000 0.500000
vt 0.166667 0.500000
vt 0.333333 0.500000
vt 0.500000 0.500000
vt 0.333333 1.000000
vt 0.166667 1.000000
vt 0.500000 1.000000
vt 0.000000 1.000000
s 0
usemtl calle.004
f 3/2/2 14/3/2 17/4/2 2/5/2
f 14/3/2 13/6/2 16/7/2 17/4/2
f 13/6/2 12/8/2 15/9/2 16/7/2
f 11/10/2 10/11/2 14/3/2 3/2/2
f 10/11/2 9/12/2 13/6/2 14/3/2
f 9/12/2 8/13/2 12/8/2 13/6/2
f 4/14/2 20/15/2 10/11/2 11/10/2
f 19/16/2 18/17/2 8/13/2 9/12/2
f 17/4/2 16/7/2 6/18/2 7/19/2
f 16/7/2 15/9/2 5/20/2 6/18/2
f 27/2/2 26/5/2 40/4/2 37/3/2
f 37/3/2 40/4/2 39/7/2 36/6/2
f 36/6/2 39/7/2 38/9/2 35/8/2
f 34/10/2 27/2/2 37/3/2 33/11/2
f 33/11/2 37/3/2 36/6/2 32/12/2
f 32/12/2 36/6/2 35/8/2 31/13/2
f 4/14/2 34/10/2 33/11/2 20/15/2
f 19/16/2 32/12/2 31/13/2 18/17/2
f 40/4/2 30/19/2 29/18/2 39/7/2
f 39/7/2 29/18/2 28/20/2 38/9/2
usemtl Lineas_blancas.004
f 20/15/2 19/16/2 9/12/2 10/11/2
f 20/15/2 33/11/2 32/12/2 19/16/2
usemtl Banqueta.003
f 1/1/1 2/1/1 23/1/1 22/1/1
f 23/5/2 24/4/2 21/19/2 22/21/2
f 17/4/3 7/19/3 21/19/3 24/4/3
f 2/5/4 17/4/4 24/4/4 23/5/4
f 7/1/5 1/1/5 22/1/5 21/1/5
f 25/1/1 42/1/1 43/1/1 26/1/1
f 43/5/2 42/21/2 41/19/2 44/4/2
f 40/4/3 44/4/3 41/19/3 30/19/3
f 26/5/5 43/5/5 44/4/5 40/4/5
f 30/1/4 41/1/4 42/1/4 25/1/4
