# Blender 5.2.2 LTS
# www.blender.org
mtllib Interseccion.mtl
o Plane
v -6.000000 0.170000 -14.000000
v -2.000000 0.000000 -14.000000
v -6.000000 0.000000 -14.000000
v -10.000000 0.000000 -14.000000
v -14.000000 0.000000 -10.000000
v -14.000000 0.000000 -6.000000
v -14.000000 0.000000 -2.000000
v -10.000000 0.000000 -2.000000
v -10.000000 0.000000 -6.000000
v -10.000000 0.000000 -10.000000
v -6.000000 0.000000 -2.000000
v -14.000000 0.000000 -4.000000
v -6.000000 0.000000 -10.000000
v -14.000000 0.000000 -5.000000
v -10.000000 0.170000 -6.000000
v -14.000000 0.170000 -6.000000
v -2.000000 0.000000 -2.000000
v -2.000000 0.000000 -6.000000
v -2.000000 0.000000 -10.000000
v -14.000000 0.000000 0.000000
v -10.000000 0.000000 0.000000
v -6.000000 0.000000 0.000000
v -2.000000 0.000000 0.000000
v -14.000000 0.170000 -10.000000
v 0.000000 0.000000 -14.000000
v -6.000000 0.170000 -10.000000
v -10.000000 0.170000 -10.000000
v -10.000000 0.170000 -14.000000
v 0.000000 0.000000 -2.000000
v 0.000000 0.000000 -6.000000
v 0.000000 0.000000 -10.000000
v 0.000000 0.000000 0.000000
v -6.000000 0.000000 -8.800000
v -8.800000 0.000000 -6.000000
v -6.000000 0.000000 -3.200000
v -3.200000 0.000000 -6.000000
v -6.095407 0.000000 -8.075306
v -6.375128 0.000000 -7.399999
v -6.820100 0.000000 -6.820100
v -7.399999 0.000000 -6.375128
v -8.075306 0.000000 -6.095407
v -8.800000 0.170000 -6.000000
v -6.000000 0.170000 -8.800000
v -8.075306 0.170000 -6.095407
v -7.399999 0.170000 -6.375128
v -6.820100 0.170000 -6.820100
v -6.375128 0.170000 -7.399999
v -6.095407 0.170000 -8.075306
v -14.000000 0.000000 -3.000000
v -10.000000 0.000000 -3.000000
v -10.000000 0.000000 -4.000000
v -10.000000 0.000000 -5.000000
v -10.000000 0.000000 -1.000000
v -6.000000 0.000000 -1.000000
v -2.000000 0.000000 -1.000000
v -14.000000 0.000000 -1.000000
v 0.000000 0.000000 -1.000000
v -13.776000 0.000000 -0.224000
v -10.224000 0.000000 -0.224000
v -10.224000 0.000000 -0.776000
v -13.776000 0.000000 -0.776000
v -13.776000 0.000000 -3.224000
v -10.224000 0.000000 -3.224000
v -10.224000 0.000000 -3.776000
v -13.776000 0.000000 -3.776000
v -13.776000 0.000000 -1.224000
v -10.224000 0.000000 -1.224000
v -10.224000 0.000000 -1.776000
v -13.776000 0.000000 -1.776000
v -13.776000 0.000000 -5.224000
v -10.224000 0.000000 -5.224000
v -10.224000 0.000000 -5.776000
v -13.776000 0.000000 -5.776000
v -13.776000 0.000000 -4.224000
v -10.224000 0.000000 -4.224000
v -10.224000 0.000000 -4.776000
v -13.776000 0.000000 -4.776000
v -13.776000 0.000000 -2.224000
v -10.224000 0.000000 -2.224000
v -10.224000 0.000000 -2.776000
v -13.776000 0.000000 -2.776000
v -3.000000 0.000000 -14.000000
v -4.000000 0.000000 -14.000000
v -5.000000 0.000000 -14.000000
v -3.000000 0.000000 -10.000000
v -4.000000 0.000000 -10.000000
v -5.000000 0.000000 -10.000000
v -1.000000 0.000000 -14.000000
v -1.000000 0.000000 -2.000000
v -1.000000 0.000000 -6.000000
v -1.000000 0.000000 -10.000000
v -1.000000 0.000000 0.000000
v -1.000000 0.000000 -1.000000
v -2.776000 0.000000 -10.224000
v -2.224000 0.000000 -10.224000
v -2.224000 0.000000 -13.776000
v -2.776000 0.000000 -13.776000
v -0.776000 0.000000 -10.224000
v -0.224000 0.000000 -10.224000
v -0.224000 0.000000 -13.776000
v -0.776000 0.000000 -13.776000
v -5.776000 0.000000 -10.224000
v -5.224000 0.000000 -10.224000
v -5.224000 0.000000 -13.776000
v -5.776000 0.000000 -13.776000
v -4.776000 0.000000 -10.224000
v -4.224000 0.000000 -10.224000
v -4.224000 0.000000 -13.776000
v -4.776000 0.000000 -13.776000
v -3.776000 0.000000 -10.224000
v -3.224000 0.000000 -10.224000
v -3.224000 0.000000 -13.776000
v -3.776000 0.000000 -13.776000
v -1.776000 0.000000 -10.224000
v -1.224000 0.000000 -10.224000
v -1.224000 0.000000 -13.776000
v -1.776000 0.000000 -13.776000
v 6.000000 0.170000 -14.000000
v 2.000000 0.000000 -14.000000
v 6.000000 0.000000 -14.000000
v 10.000000 0.000000 -14.000000
v 14.000000 0.000000 -10.000000
v 14.000000 0.000000 -6.000000
v 14.000000 0.000000 -2.000000
v 10.000000 0.000000 -2.000000
v 10.000000 0.000000 -6.000000
v 10.000000 0.000000 -10.000000
v 6.000000 0.000000 -2.000000
v 14.000000 0.000000 -4.000000
v 6.000000 0.000000 -10.000000
v 14.000000 0.000000 -5.000000
v 10.000000 0.170000 -6.000000
v 14.000000 0.170000 -6.000000
v 2.000000 0.000000 -2.000000
v 2.000000 0.000000 -6.000000
v 2.000000 0.000000 -10.000000
v 14.000000 0.000000 0.000000
v 10.000000 0.000000 0.000000
v 6.000000 0.000000 0.000000
v 2.000000 0.000000 0.000000
v 14.000000 0.170000 -10.000000
v 6.000000 0.170000 -10.000000
v 10.000000 0.170000 -10.000000
v 10.000000 0.170000 -14.000000
v 6.000000 0.000000 -8.800000
v 8.800000 0.000000 -6.000000
v 6.000000 0.000000 -3.200000
v 3.200000 0.000000 -6.000000
v 6.095407 0.000000 -8.075306
v 6.375128 0.000000 -7.399999
v 6.820100 0.000000 -6.820100
v 7.399999 0.000000 -6.375128
v 8.075306 0.000000 -6.095407
v 8.800000 0.170000 -6.000000
v 6.000000 0.170000 -8.800000
v 8.075306 0.170000 -6.095407
v 7.399999 0.170000 -6.375128
v 6.820100 0.170000 -6.820100
v 6.375128 0.170000 -7.399999
v 6.095407 0.170000 -8.075306
v 14.000000 0.000000 -3.000000
v 10.000000 0.000000 -3.000000
v 10.000000 0.000000 -4.000000
v 10.000000 0.000000 -5.000000
v 10.000000 0.000000 -1.000000
v 6.000000 0.000000 -1.000000
v 2.000000 0.000000 -1.000000
v 14.000000 0.000000 -1.000000
v 13.776000 0.000000 -0.224000
v 10.224000 0.000000 -0.224000
v 10.224000 0.000000 -0.776000
v 13.776000 0.000000 -0.776000
v 13.776000 0.000000 -3.224000
v 10.224000 0.000000 -3.224000
v 10.224000 0.000000 -3.776000
v 13.776000 0.000000 -3.776000
v 13.776000 0.000000 -1.224000
v 10.224000 0.000000 -1.224000
v 10.224000 0.000000 -1.776000
v 13.776000 0.000000 -1.776000
v 13.776000 0.000000 -5.224000
v 10.224000 0.000000 -5.224000
v 10.224000 0.000000 -5.776000
v 13.776000 0.000000 -5.776000
v 13.776000 0.000000 -4.224000
v 10.224000 0.000000 -4.224000
v 10.224000 0.000000 -4.776000
v 13.776000 0.000000 -4.776000
v 13.776000 0.000000 -2.224000
v 10.224000 0.000000 -2.224000
v 10.224000 0.000000 -2.776000
v 13.776000 0.000000 -2.776000
v 3.000000 0.000000 -14.000000
v 4.000000 0.000000 -14.000000
v 5.000000 0.000000 -14.000000
v 3.000000 0.000000 -10.000000
v 4.000000 0.000000 -10.000000
v 5.000000 0.000000 -10.000000
v 1.000000 0.000000 -14.000000
v 1.000000 0.000000 -2.000000
v 1.000000 0.000000 -6.000000
v 1.000000 0.000000 -10.000000
v 1.000000 0.000000 0.000000
v 1.000000 0.000000 -1.000000
v 2.776000 0.000000 -10.224000
v 2.224000 0.000000 -10.224000
v 2.224000 0.000000 -13.776000
v 2.776000 0.000000 -13.776000
v 0.776000 0.000000 -10.224000
v 0.224000 0.000000 -10.224000
v 0.224000 0.000000 -13.776000
v 0.776000 0.000000 -13.776000
v 5.776000 0.000000 -10.224000
v 5.224000 0.000000 -10.224000
v 5.224000 0.000000 -13.776000
v 5.776000 0.000000 -13.776000
v 4.776000 0.000000 -10.224000
v 4.224000 0.000000 -10.224000
v 4.224000 0.000000 -13.776000
v 4.776000 0.000000 -13.776000
v 3.776000 0.000000 -10.224000
v 3.224000 0.000000 -10.224000
v 3.224000 0.000000 -13.776000
v 3.776000 0.000000 -13.776000
v 1.776000 0.000000 -10.224000
v 1.224000 0.000000 -10.224000
v 1.224000 0.000000 -13.776000
v 1.776000 0.000000 -13.776000
v -6.000000 0.170000 14.000000
v -2.000000 0.000000 14.000000
v -6.000000 0.000000 14.000000
v -10.000000 0.000000 14.000000
v -14.000000 0.000000 10.000000
v -14.000000 0.000000 6.000000
v -14.000000 0.000000 2.000000
v -10.000000 0.000000 2.000000
v -10.000000 0.000000 6.000000
v -10.000000 0.000000 10.000000
v -6.000000 0.000000 2.000000
v -14.000000 0.000000 4.000000
v -6.000000 0.000000 10.000000
v -14.000000 0.000000 5.000000
v -10.000000 0.170000 6.000000
v -14.000000 0.170000 6.000000
v -2.000000 0.000000 2.000000
v -2.000000 0.000000 6.000000
v -2.000000 0.000000 10.000000
v -14.000000 0.170000 10.000000
v 0.000000 0.000000 14.000000
v -6.000000 0.170000 10.000000
v -10.000000 0.170000 10.000000
v -10.000000 0.170000 14.000000
v 0.000000 0.000000 2.000000
v 0.000000 0.000000 6.000000
v 0.000000 0.000000 10.000000
v -6.000000 0.000000 8.800000
v -8.800000 0.000000 6.000000
v -6.000000 0.000000 3.200000
v -3.200000 0.000000 6.000000
v -6.095407 0.000000 8.075306
v -6.375128 0.000000 7.399999
v -6.820100 0.000000 6.820100
v -7.399999 0.000000 6.375128
v -8.075306 0.000000 6.095407
v -8.800000 0.170000 6.000000
v -6.000000 0.170000 8.800000
v -8.075306 0.170000 6.095407
v -7.399999 0.170000 6.375128
v -6.820100 0.170000 6.820100
v -6.375128 0.170000 7.399999
v -6.095407 0.170000 8.075306
v -14.000000 0.000000 3.000000
v -10.000000 0.000000 3.000000
v -10.000000 0.000000 4.000000
v -10.000000 0.000000 5.000000
v -10.000000 0.000000 1.000000
v -6.000000 0.000000 1.000000
v -2.000000 0.000000 1.000000
v -14.000000 0.000000 1.000000
v 0.000000 0.000000 1.000000
v -13.776000 0.000000 0.224000
v -10.224000 0.000000 0.224000
v -10.224000 0.000000 0.776000
v -13.776000 0.000000 0.776000
v -13.776000 0.000000 3.224000
v -10.224000 0.000000 3.224000
v -10.224000 0.000000 3.776000
v -13.776000 0.000000 3.776000
v -13.776000 0.000000 1.224000
v -10.224000 0.000000 1.224000
v -10.224000 0.000000 1.776000
v -13.776000 0.000000 1.776000
v -13.776000 0.000000 5.224000
v -10.224000 0.000000 5.224000
v -10.224000 0.000000 5.776000
v -13.776000 0.000000 5.776000
v -13.776000 0.000000 4.224000
v -10.224000 0.000000 4.224000
v -10.224000 0.000000 4.776000
v -13.776000 0.000000 4.776000
v -13.776000 0.000000 2.224000
v -10.224000 0.000000 2.224000
v -10.224000 0.000000 2.776000
v -13.776000 0.000000 2.776000
v -3.000000 0.000000 14.000000
v -4.000000 0.000000 14.000000
v -5.000000 0.000000 14.000000
v -3.000000 0.000000 10.000000
v -4.000000 0.000000 10.000000
v -5.000000 0.000000 10.000000
v -1.000000 0.000000 14.000000
v -1.000000 0.000000 2.000000
v -1.000000 0.000000 6.000000
v -1.000000 0.000000 10.000000
v -1.000000 0.000000 1.000000
v -2.776000 0.000000 10.224000
v -2.224000 0.000000 10.224000
v -2.224000 0.000000 13.776000
v -2.776000 0.000000 13.776000
v -0.776000 0.000000 10.224000
v -0.224000 0.000000 10.224000
v -0.224000 0.000000 13.776000
v -0.776000 0.000000 13.776000
v -5.776000 0.000000 10.224000
v -5.224000 0.000000 10.224000
v -5.224000 0.000000 13.776000
v -5.776000 0.000000 13.776000
v -4.776000 0.000000 10.224000
v -4.224000 0.000000 10.224000
v -4.224000 0.000000 13.776000
v -4.776000 0.000000 13.776000
v -3.776000 0.000000 10.224000
v -3.224000 0.000000 10.224000
v -3.224000 0.000000 13.776000
v -3.776000 0.000000 13.776000
v -1.776000 0.000000 10.224000
v -1.224000 0.000000 10.224000
v -1.224000 0.000000 13.776000
v -1.776000 0.000000 13.776000
v 6.000000 0.170000 14.000000
v 2.000000 0.000000 14.000000
v 6.000000 0.000000 14.000000
v 10.000000 0.000000 14.000000
v 14.000000 0.000000 10.000000
v 14.000000 0.000000 6.000000
v 14.000000 0.000000 2.000000
v 10.000000 0.000000 2.000000
v 10.000000 0.000000 6.000000
v 10.000000 0.000000 10.000000
v 6.000000 0.000000 2.000000
v 14.000000 0.000000 4.000000
v 6.000000 0.000000 10.000000
v 14.000000 0.000000 5.000000
v 10.000000 0.170000 6.000000
v 14.000000 0.170000 6.000000
v 2.000000 0.000000 2.000000
v 2.000000 0.000000 6.000000
v 2.000000 0.000000 10.000000
v 14.000000 0.170000 10.000000
v 6.000000 0.170000 10.000000
v 10.000000 0.170000 10.000000
v 10.000000 0.170000 14.000000
v 6.000000 0.000000 8.800000
v 8.800000 0.000000 6.000000
v 6.000000 0.000000 3.200000
v 3.200000 0.000000 6.000000
v 6.095407 0.000000 8.075306
v 6.375128 0.000000 7.399999
v 6.820100 0.000000 6.820100
v 7.399999 0.000000 6.375128
v 8.075306 0.000000 6.095407
v 8.800000 0.170000 6.000000
v 6.000000 0.170000 8.800000
v 8.075306 0.170000 6.095407
v 7.399999 0.170000 6.375128
v 6.820100 0.170000 6.820100
v 6.375128 0.170000 7.399999
v 6.095407 0.170000 8.075306
v 14.000000 0.000000 3.000000
v 10.000000 0.000000 3.000000
v 10.000000 0.000000 4.000000
v 10.000000 0.000000 5.000000
v 10.000000 0.000000 1.000000
v 6.000000 0.000000 1.000000
v 2.000000 0.000000 1.000000
v 14.000000 0.000000 1.000000
v 13.776000 0.000000 0.224000
v 10.224000 0.000000 0.224000
v 10.224000 0.000000 0.776000
v 13.776000 0.000000 0.776000
v 13.776000 0.000000 3.224000
v 10.224000 0.000000 3.224000
v 10.224000 0.000000 3.776000
v 13.776000 0.000000 3.776000
v 13.776000 0.000000 1.224000
v 10.224000 0.000000 1.224000
v 10.224000 0.000000 1.776000
v 13.776000 0.000000 1.776000
v 13.776000 0.000000 5.224000
v 10.224000 0.000000 5.224000
v 10.224000 0.000000 5.776000
v 13.776000 0.000000 5.776000
v 13.776000 0.000000 4.224000
v 10.224000 0.000000 4.224000
v 10.224000 0.000000 4.776000
v 13.776000 0.000000 4.776000
v 13.776000 0.000000 2.224000
v 10.224000 0.000000 2.224000
v 10.224000 0.000000 2.776000
v 13.776000 0.000000 2.776000
v 3.000000 0.000000 14.000000
v 4.000000 0.000000 14.000000
v 5.000000 0.000000 14.000000
v 3.000000 0.000000 10.000000
v 4.000000 0.000000 10.000000
v 5.000000 0.000000 10.000000
v 1.000000 0.000000 14.000000
v 1.000000 0.000000 2.000000
v 1.000000 0.000000 6.000000
v 1.000000 0.000000 10.000000
v 1.000000 0.000000 1.000000
v 2.776000 0.000000 10.224000
v 2.224000 0.000000 10.224000
v 2.224000 0.000000 13.776000
v 2.776000 0.000000 13.776000
v 0.776000 0.000000 10.224000
v 0.224000 0.000000 10.224000
v 0.224000 0.000000 13.776000
v 0.776000 0.000000 13.776000
v 5.776000 0.000000 10.224000
v 5.224000 0.000000 10.224000
v 5.224000 0.000000 13.776000
v 5.776000 0.000000 13.776000
v 4.776000 0.000000 10.224000
v 4.224000 0.000000 10.224000
v 4.224000 0.000000 13.776000
v 4.776000 0.000000 13.776000
v 3.776000 0.000000 10.224000
v 3.224000 0.000000 10.224000
v 3.224000 0.000000 13.776000
v 3.776000 0.000000 13.776000
v 1.776000 0.000000 10.224000
v 1.224000 0.000000 10.224000
v 1.224000 0.000000 13.776000
v 1.776000 0.000000 13.776000
vn -0.0000 1.0000 -0.0000
vn -1.0000 -0.0000 -0.0000
vn -0.0000 -0.0000 1.0000
vn 1.0000 -0.0000 -0.0000
vn -0.0000 -0.0000 -1.0000
vn 0.1305 -0.0000 0.9914
vn 0.3827 -0.0000 0.9239
vn 0.6088 -0.0000 0.7934
vn 0.7934 -0.0000 0.6088
vn 0.9239 -0.0000 0.3827
vn 0.9914 -0.0000 0.1305
vn -0.1305 -0.0000 0.9914
vn -0.3827 -0.0000 0.9239
vn -0.6088 -0.0000 0.7934
vn -0.7934 -0.0000 0.6088
vn -0.9239 -0.0000 0.3827
vn -0.9914 -0.0000 0.1305
vn 0.1305 -0.0000 -0.9914
vn 0.3827 -0.0000 -0.9239
vn 0.6088 -0.0000 -0.7934
vn 0.7934 -0.0000 -0.6088
vn 0.9239 -0.0000 -0.3827
vn 0.9914 -0.0000 -0.1305
vn -0.1305 -0.0000 -0.9914
vn -0.3827 -0.0000 -0.9239
vn -0.6088 -0.0000 -0.7934
vn -0.7934 -0.0000 -0.6088
vn -0.9239 -0.0000 -0.3827
vn -0.9914 -0.0000 -0.1305
vt 0.142857 0.857143
vt 0.285714 0.857143
vt 0.285714 1.000000
vt 0.142857 1.000000
vt 0.464286 0.500000
vt 0.500000 0.500000
vt 0.500000 0.535714
vt 0.464286 0.535714
vt 0.400857 0.865143
vt 0.420571 0.865143
vt 0.420571 0.992000
vt 0.400857 0.992000
vt 0.285714 0.535714
vt 0.428571 0.535714
vt 0.428571 0.571429
vt 0.285714 0.571429
vt 0.142857 0.500000
vt 0.285714 0.500000
vt 0.142857 0.535714
vt 0.008000 0.508000
vt 0.134857 0.508000
vt 0.134857 0.527714
vt 0.008000 0.527714
vt 0.142857 0.571429
vt 0.008000 0.615143
vt 0.134857 0.615143
vt 0.134857 0.634857
vt 0.008000 0.634857
vt 0.000000 0.000000
vt 0.008000 0.543714
vt 0.134857 0.543714
vt 0.134857 0.563429
vt 0.008000 0.563429
vt 0.008000 0.686571
vt 0.134857 0.686571
vt 0.134857 0.706286
vt 0.008000 0.706286
vt 0.000000 0.714286
vt 0.142857 0.714286
vt 0.008000 0.650857
vt 0.134857 0.650857
vt 0.134857 0.670572
vt 0.008000 0.670571
vt 0.464286 0.714286
vt 0.500000 0.714286
vt 0.500000 0.857143
vt 0.464286 0.857143
vt 0.464286 0.571429
vt 0.500000 0.571429
vt 0.000000 0.857143
vt 0.008000 0.579429
vt 0.134857 0.579429
vt 0.134857 0.599143
vt 0.008000 0.599143
vt 0.472286 0.865143
vt 0.492000 0.865143
vt 0.492000 0.992000
vt 0.472286 0.992000
vt 0.285714 0.814286
vt 0.285714 0.788404
vt 0.285714 0.764286
vt 0.285714 0.724049
vt 0.252381 0.718752
vt 0.236302 0.715422
vt 0.210714 0.714286
vt 0.285714 0.614286
vt 0.385714 0.714286
vt 0.185714 0.714286
vt 0.211596 0.715422
vt 0.235714 0.718752
vt 0.275951 0.724049
vt 0.281249 0.764286
vt 0.284579 0.788404
vt 0.285714 0.814286
vt 0.142857 0.678572
vt 0.142857 0.642857
vt 0.142857 0.607143
vt 0.428571 0.714286
vt 0.428571 0.857143
vt 0.392857 0.857143
vt 0.357143 0.857143
vt 0.321429 0.857143
vt 0.428571 0.500000
vt 0.000000 0.500000
vt 0.000000 0.535714
vt 0.000000 0.607143
vt 0.000000 0.642857
vt 0.000000 0.571429
vt 0.000000 0.678571
vt 0.293714 0.865143
vt 0.313429 0.865143
vt 0.313429 0.992000
vt 0.293714 0.992000
vt 0.329429 0.865143
vt 0.349143 0.865143
vt 0.349143 0.992000
vt 0.329429 0.992000
vt 0.365143 0.865143
vt 0.384857 0.865143
vt 0.384857 0.992000
vt 0.365143 0.992000
vt 0.436571 0.865143
vt 0.456286 0.865143
vt 0.456286 0.992000
vt 0.436571 0.992000
vt 0.428571 1.000000
vt 0.392857 1.000000
vt 0.500000 1.000000
vt 0.464286 1.000000
vt 0.321429 1.000000
vt 0.357143 1.000000
s 0
usemtl calle
f 92/5/1 32/6/1 57/7/1 93/8/1
f 54/13/1 55/14/1 17/15/1 11/16/1
f 21/17/1 22/18/1 54/13/1 53/19/1
f 53/19/1 54/13/1 11/16/1 8/24/1
f 90/44/1 30/45/1 31/46/1 91/47/1
f 89/48/1 29/49/1 30/45/1 90/44/1
f 93/8/1 57/7/1 29/49/1 89/48/1
f 33/59/1 37/60/1 38/61/1 39/62/1 40/63/1 41/64/1 34/65/1 35/66/1 36/67/1
f 8/24/1 11/16/1 35/66/1 34/65/1 9/39/1 52/75/1 51/76/1 50/77/1
f 11/16/1 17/15/1 18/78/1 36/67/1 35/66/1
f 33/59/1 36/67/1 18/78/1 19/79/1 85/80/1 86/81/1 87/82/1 13/2/1
f 22/18/1 23/83/1 55/14/1 54/13/1
f 20/84/1 21/17/1 59/21/1 58/20/1
f 21/17/1 53/19/1 60/22/1 59/21/1
f 53/19/1 56/85/1 61/23/1 60/22/1
f 56/85/1 20/84/1 58/20/1 61/23/1
f 49/86/1 50/77/1 63/26/1 62/25/1
f 50/77/1 51/76/1 64/27/1 63/26/1
f 51/76/1 12/87/1 65/28/1 64/27/1
f 12/87/1 49/86/1 62/25/1 65/28/1
f 56/85/1 53/19/1 67/31/1 66/30/1
f 53/19/1 8/24/1 68/32/1 67/31/1
f 8/24/1 7/88/1 69/33/1 68/32/1
f 7/88/1 56/85/1 66/30/1 69/33/1
f 14/89/1 52/75/1 71/35/1 70/34/1
f 52/75/1 9/39/1 72/36/1 71/35/1
f 9/39/1 6/38/1 73/37/1 72/36/1
f 6/38/1 14/89/1 70/34/1 73/37/1
f 12/87/1 51/76/1 75/41/1 74/40/1
f 51/76/1 52/75/1 76/42/1 75/41/1
f 52/75/1 14/89/1 77/43/1 76/42/1
f 14/89/1 12/87/1 74/40/1 77/43/1
f 7/88/1 8/24/1 79/52/1 78/51/1
f 8/24/1 50/77/1 80/53/1 79/52/1
f 50/77/1 49/86/1 81/54/1 80/53/1
f 49/86/1 7/88/1 78/51/1 81/54/1
f 55/14/1 93/8/1 89/48/1 17/15/1
f 17/15/1 89/48/1 90/44/1 18/78/1
f 18/78/1 90/44/1 91/47/1 19/79/1
f 23/83/1 92/5/1 93/8/1 55/14/1
f 85/80/1 19/79/1 95/10/1 94/9/1
f 19/79/1 2/106/1 96/11/1 95/10/1
f 2/106/1 82/107/1 97/12/1 96/11/1
f 82/107/1 85/80/1 94/9/1 97/12/1
f 91/47/1 31/46/1 99/56/1 98/55/1
f 31/46/1 25/108/1 100/57/1 99/56/1
f 25/108/1 88/109/1 101/58/1 100/57/1
f 88/109/1 91/47/1 98/55/1 101/58/1
f 13/2/1 87/82/1 103/91/1 102/90/1
f 87/82/1 84/110/1 104/92/1 103/91/1
f 84/110/1 3/3/1 105/93/1 104/92/1
f 3/3/1 13/2/1 102/90/1 105/93/1
f 87/82/1 86/81/1 107/95/1 106/94/1
f 86/81/1 83/111/1 108/96/1 107/95/1
f 83/111/1 84/110/1 109/97/1 108/96/1
f 84/110/1 87/82/1 106/94/1 109/97/1
f 86/81/1 85/80/1 111/99/1 110/98/1
f 85/80/1 82/107/1 112/100/1 111/99/1
f 82/107/1 83/111/1 113/101/1 112/100/1
f 83/111/1 86/81/1 110/98/1 113/101/1
f 19/79/1 91/47/1 115/103/1 114/102/1
f 91/47/1 88/109/1 116/104/1 115/103/1
f 88/109/1 2/106/1 117/105/1 116/104/1
f 2/106/1 19/79/1 114/102/1 117/105/1
f 203/5/1 204/8/1 57/7/1 32/6/1
f 166/13/1 128/16/1 134/15/1 167/14/1
f 138/17/1 165/19/1 166/13/1 139/18/1
f 165/19/1 125/24/1 128/16/1 166/13/1
f 201/44/1 202/47/1 31/46/1 30/45/1
f 200/48/1 201/44/1 30/45/1 29/49/1
f 204/8/1 200/48/1 29/49/1 57/7/1
f 145/59/1 148/67/1 147/66/1 146/65/1 153/64/1 152/63/1 151/62/1 150/61/1 149/60/1
f 125/24/1 162/77/1 163/76/1 164/75/1 126/39/1 146/65/1 147/66/1 128/16/1
f 128/16/1 147/66/1 148/67/1 135/78/1 134/15/1
f 145/59/1 130/2/1 198/82/1 197/81/1 196/80/1 136/79/1 135/78/1 148/67/1
f 139/18/1 166/13/1 167/14/1 140/83/1
f 137/84/1 169/20/1 170/21/1 138/17/1
f 138/17/1 170/21/1 171/22/1 165/19/1
f 165/19/1 171/22/1 172/23/1 168/85/1
f 168/85/1 172/23/1 169/20/1 137/84/1
f 161/86/1 173/25/1 174/26/1 162/77/1
f 162/77/1 174/26/1 175/27/1 163/76/1
f 163/76/1 175/27/1 176/28/1 129/87/1
f 129/87/1 176/28/1 173/25/1 161/86/1
f 168/85/1 177/30/1 178/31/1 165/19/1
f 165/19/1 178/31/1 179/32/1 125/24/1
f 125/24/1 179/32/1 180/33/1 124/88/1
f 124/88/1 180/33/1 177/30/1 168/85/1
f 131/89/1 181/34/1 182/35/1 164/75/1
f 164/75/1 182/35/1 183/36/1 126/39/1
f 126/39/1 183/36/1 184/37/1 123/38/1
f 123/38/1 184/37/1 181/34/1 131/89/1
f 129/87/1 185/40/1 186/41/1 163/76/1
f 163/76/1 186/41/1 187/42/1 164/75/1
f 164/75/1 187/42/1 188/43/1 131/89/1
f 131/89/1 188/43/1 185/40/1 129/87/1
f 124/88/1 189/51/1 190/52/1 125/24/1
f 125/24/1 190/52/1 191/53/1 162/77/1
f 162/77/1 191/53/1 192/54/1 161/86/1
f 161/86/1 192/54/1 189/51/1 124/88/1
f 167/14/1 134/15/1 200/48/1 204/8/1
f 134/15/1 135/78/1 201/44/1 200/48/1
f 135/78/1 136/79/1 202/47/1 201/44/1
f 140/83/1 167/14/1 204/8/1 203/5/1
f 196/80/1 205/9/1 206/10/1 136/79/1
f 136/79/1 206/10/1 207/11/1 119/106/1
f 119/106/1 207/11/1 208/12/1 193/107/1
f 193/107/1 208/12/1 205/9/1 196/80/1
f 202/47/1 209/55/1 210/56/1 31/46/1
f 31/46/1 210/56/1 211/57/1 25/108/1
f 25/108/1 211/57/1 212/58/1 199/109/1
f 199/109/1 212/58/1 209/55/1 202/47/1
f 130/2/1 213/90/1 214/91/1 198/82/1
f 198/82/1 214/91/1 215/92/1 195/110/1
f 195/110/1 215/92/1 216/93/1 120/3/1
f 120/3/1 216/93/1 213/90/1 130/2/1
f 198/82/1 217/94/1 218/95/1 197/81/1
f 197/81/1 218/95/1 219/96/1 194/111/1
f 194/111/1 219/96/1 220/97/1 195/110/1
f 195/110/1 220/97/1 217/94/1 198/82/1
f 197/81/1 221/98/1 222/99/1 196/80/1
f 196/80/1 222/99/1 223/100/1 193/107/1
f 193/107/1 223/100/1 224/101/1 194/111/1
f 194/111/1 224/101/1 221/98/1 197/81/1
f 136/79/1 225/102/1 226/103/1 202/47/1
f 202/47/1 226/103/1 227/104/1 199/109/1
f 199/109/1 227/104/1 228/105/1 119/106/1
f 119/106/1 228/105/1 225/102/1 136/79/1
f 92/5/1 315/8/1 280/7/1 32/6/1
f 277/13/1 239/16/1 245/15/1 278/14/1
f 21/17/1 276/19/1 277/13/1 22/18/1
f 276/19/1 236/24/1 239/16/1 277/13/1
f 313/44/1 314/47/1 255/46/1 254/45/1
f 312/48/1 313/44/1 254/45/1 253/49/1
f 315/8/1 312/48/1 253/49/1 280/7/1
f 256/59/1 259/67/1 258/66/1 257/65/1 264/64/1 263/63/1 262/62/1 261/61/1 260/60/1
f 236/24/1 273/77/1 274/76/1 275/75/1 237/39/1 257/65/1 258/66/1 239/16/1
f 239/16/1 258/66/1 259/67/1 246/78/1 245/15/1
f 256/59/1 241/2/1 310/82/1 309/81/1 308/80/1 247/79/1 246/78/1 259/67/1
f 22/18/1 277/13/1 278/14/1 23/83/1
f 20/84/1 281/20/1 282/21/1 21/17/1
f 21/17/1 282/21/1 283/22/1 276/19/1
f 276/19/1 283/22/1 284/23/1 279/85/1
f 279/85/1 284/23/1 281/20/1 20/84/1
f 272/86/1 285/25/1 286/26/1 273/77/1
f 273/77/1 286/26/1 287/27/1 274/76/1
f 274/76/1 287/27/1 288/28/1 240/87/1
f 240/87/1 288/28/1 285/25/1 272/86/1
f 279/85/1 289/30/1 290/31/1 276/19/1
f 276/19/1 290/31/1 291/32/1 236/24/1
f 236/24/1 291/32/1 292/33/1 235/88/1
f 235/88/1 292/33/1 289/30/1 279/85/1
f 242/89/1 293/34/1 294/35/1 275/75/1
f 275/75/1 294/35/1 295/36/1 237/39/1
f 237/39/1 295/36/1 296/37/1 234/38/1
f 234/38/1 296/37/1 293/34/1 242/89/1
f 240/87/1 297/40/1 298/41/1 274/76/1
f 274/76/1 298/41/1 299/42/1 275/75/1
f 275/75/1 299/42/1 300/43/1 242/89/1
f 242/89/1 300/43/1 297/40/1 240/87/1
f 235/88/1 301/51/1 302/52/1 236/24/1
f 236/24/1 302/52/1 303/53/1 273/77/1
f 273/77/1 303/53/1 304/54/1 272/86/1
f 272/86/1 304/54/1 301/51/1 235/88/1
f 278/14/1 245/15/1 312/48/1 315/8/1
f 245/15/1 246/78/1 313/44/1 312/48/1
f 246/78/1 247/79/1 314/47/1 313/44/1
f 23/83/1 278/14/1 315/8/1 92/5/1
f 308/80/1 316/9/1 317/10/1 247/79/1
f 247/79/1 317/10/1 318/11/1 230/106/1
f 230/106/1 318/11/1 319/12/1 305/107/1
f 305/107/1 319/12/1 316/9/1 308/80/1
f 314/47/1 320/55/1 321/56/1 255/46/1
f 255/46/1 321/56/1 322/57/1 249/108/1
f 249/108/1 322/57/1 323/58/1 311/109/1
f 311/109/1 323/58/1 320/55/1 314/47/1
f 241/2/1 324/90/1 325/91/1 310/82/1
f 310/82/1 325/91/1 326/92/1 307/110/1
f 307/110/1 326/92/1 327/93/1 231/3/1
f 231/3/1 327/93/1 324/90/1 241/2/1
f 310/82/1 328/94/1 329/95/1 309/81/1
f 309/81/1 329/95/1 330/96/1 306/111/1
f 306/111/1 330/96/1 331/97/1 307/110/1
f 307/110/1 331/97/1 328/94/1 310/82/1
f 309/81/1 332/98/1 333/99/1 308/80/1
f 308/80/1 333/99/1 334/100/1 305/107/1
f 305/107/1 334/100/1 335/101/1 306/111/1
f 306/111/1 335/101/1 332/98/1 309/81/1
f 247/79/1 336/102/1 337/103/1 314/47/1
f 314/47/1 337/103/1 338/104/1 311/109/1
f 311/109/1 338/104/1 339/105/1 230/106/1
f 230/106/1 339/105/1 336/102/1 247/79/1
f 203/5/1 32/6/1 280/7/1 421/8/1
f 384/13/1 385/14/1 356/15/1 350/16/1
f 138/17/1 139/18/1 384/13/1 383/19/1
f 383/19/1 384/13/1 350/16/1 347/24/1
f 419/44/1 254/45/1 255/46/1 420/47/1
f 418/48/1 253/49/1 254/45/1 419/44/1
f 421/8/1 280/7/1 253/49/1 418/48/1
f 363/59/1 367/60/1 368/61/1 369/62/1 370/63/1 371/64/1 364/65/1 365/66/1 366/67/1
f 347/24/1 350/16/1 365/66/1 364/65/1 348/39/1 382/75/1 381/76/1 380/77/1
f 350/16/1 356/15/1 357/78/1 366/67/1 365/66/1
f 363/59/1 366/67/1 357/78/1 358/79/1 414/80/1 415/81/1 416/82/1 352/2/1
f 139/18/1 140/83/1 385/14/1 384/13/1
f 137/84/1 138/17/1 388/21/1 387/20/1
f 138/17/1 383/19/1 389/22/1 388/21/1
f 383/19/1 386/85/1 390/23/1 389/22/1
f 386/85/1 137/84/1 387/20/1 390/23/1
f 379/86/1 380/77/1 392/26/1 391/25/1
f 380/77/1 381/76/1 393/27/1 392/26/1
f 381/76/1 351/87/1 394/28/1 393/27/1
f 351/87/1 379/86/1 391/25/1 394/28/1
f 386/85/1 383/19/1 396/31/1 395/30/1
f 383/19/1 347/24/1 397/32/1 396/31/1
f 347/24/1 346/88/1 398/33/1 397/32/1
f 346/88/1 386/85/1 395/30/1 398/33/1
f 353/89/1 382/75/1 400/35/1 399/34/1
f 382/75/1 348/39/1 401/36/1 400/35/1
f 348/39/1 345/38/1 402/37/1 401/36/1
f 345/38/1 353/89/1 399/34/1 402/37/1
f 351/87/1 381/76/1 404/41/1 403/40/1
f 381/76/1 382/75/1 405/42/1 404/41/1
f 382/75/1 353/89/1 406/43/1 405/42/1
f 353/89/1 351/87/1 403/40/1 406/43/1
f 346/88/1 347/24/1 408/52/1 407/51/1
f 347/24/1 380/77/1 409/53/1 408/52/1
f 380/77/1 379/86/1 410/54/1 409/53/1
f 379/86/1 346/88/1 407/51/1 410/54/1
f 385/14/1 421/8/1 418/48/1 356/15/1
f 356/15/1 418/48/1 419/44/1 357/78/1
f 357/78/1 419/44/1 420/47/1 358/79/1
f 140/83/1 203/5/1 421/8/1 385/14/1
f 414/80/1 358/79/1 423/10/1 422/9/1
f 358/79/1 341/106/1 424/11/1 423/10/1
f 341/106/1 411/107/1 425/12/1 424/11/1
f 411/107/1 414/80/1 422/9/1 425/12/1
f 420/47/1 255/46/1 427/56/1 426/55/1
f 255/46/1 249/108/1 428/57/1 427/56/1
f 249/108/1 417/109/1 429/58/1 428/57/1
f 417/109/1 420/47/1 426/55/1 429/58/1
f 352/2/1 416/82/1 431/91/1 430/90/1
f 416/82/1 413/110/1 432/92/1 431/91/1
f 413/110/1 342/3/1 433/93/1 432/92/1
f 342/3/1 352/2/1 430/90/1 433/93/1
f 416/82/1 415/81/1 435/95/1 434/94/1
f 415/81/1 412/111/1 436/96/1 435/95/1
f 412/111/1 413/110/1 437/97/1 436/96/1
f 413/110/1 416/82/1 434/94/1 437/97/1
f 415/81/1 414/80/1 439/99/1 438/98/1
f 414/80/1 411/107/1 440/100/1 439/99/1
f 411/107/1 412/111/1 441/101/1 440/100/1
f 412/111/1 415/81/1 438/98/1 441/101/1
f 358/79/1 420/47/1 443/103/1 442/102/1
f 420/47/1 417/109/1 444/104/1 443/103/1
f 417/109/1 341/106/1 445/105/1 444/104/1
f 341/106/1 358/79/1 442/102/1 445/105/1
usemtl Banqueta
f 27/1/1 26/2/1 1/3/1 28/4/1
f 4/29/2 10/29/2 27/29/2 28/29/2
f 6/38/3 9/39/3 15/39/3 16/38/3
f 13/2/4 3/3/4 1/3/4 26/2/4
f 10/29/5 5/29/5 24/29/5 27/29/5
f 16/38/1 15/39/1 27/1/1 24/50/1
f 42/68/6 34/65/6 41/64/6 44/69/6
f 44/69/7 41/64/7 40/63/7 45/70/7
f 45/70/8 40/63/8 39/62/8 46/71/8
f 46/71/9 39/62/9 38/61/9 47/72/9
f 47/72/10 38/61/10 37/60/10 48/73/10
f 48/73/11 37/60/11 33/59/11 43/74/11
f 33/59/4 13/2/4 26/2/4 43/74/4
f 9/39/3 34/65/3 42/68/3 15/39/3
f 15/39/1 42/68/1 44/69/1 45/70/1 46/71/1 47/72/1 48/73/1 43/74/1 26/2/1 27/1/1
f 143/1/1 144/4/1 118/3/1 142/2/1
f 121/29/4 144/29/4 143/29/4 127/29/4
f 123/38/3 133/38/3 132/39/3 126/39/3
f 130/2/2 142/2/2 118/3/2 120/3/2
f 127/29/5 143/29/5 141/29/5 122/29/5
f 133/38/1 141/50/1 143/1/1 132/39/1
f 154/68/12 156/69/12 153/64/12 146/65/12
f 156/69/13 157/70/13 152/63/13 153/64/13
f 157/70/14 158/71/14 151/62/14 152/63/14
f 158/71/15 159/72/15 150/61/15 151/62/15
f 159/72/16 160/73/16 149/60/16 150/61/16
f 160/73/17 155/74/17 145/59/17 149/60/17
f 145/59/2 155/74/2 142/2/2 130/2/2
f 126/39/3 132/39/3 154/68/3 146/65/3
f 132/39/1 143/1/1 142/2/1 155/74/1 160/73/1 159/72/1 158/71/1 157/70/1 156/69/1 154/68/1
f 251/1/1 252/4/1 229/3/1 250/2/1
f 232/29/2 252/29/2 251/29/2 238/29/2
f 234/38/5 244/38/5 243/39/5 237/39/5
f 241/2/4 250/2/4 229/3/4 231/3/4
f 238/29/3 251/29/3 248/29/3 233/29/3
f 244/38/1 248/50/1 251/1/1 243/39/1
f 265/68/18 267/69/18 264/64/18 257/65/18
f 267/69/19 268/70/19 263/63/19 264/64/19
f 268/70/20 269/71/20 262/62/20 263/63/20
f 269/71/21 270/72/21 261/61/21 262/62/21
f 270/72/22 271/73/22 260/60/22 261/61/22
f 271/73/23 266/74/23 256/59/23 260/60/23
f 256/59/4 266/74/4 250/2/4 241/2/4
f 237/39/5 243/39/5 265/68/5 257/65/5
f 243/39/1 251/1/1 250/2/1 266/74/1 271/73/1 270/72/1 269/71/1 268/70/1 267/69/1 265/68/1
f 361/1/1 360/2/1 340/3/1 362/4/1
f 343/29/4 349/29/4 361/29/4 362/29/4
f 345/38/5 348/39/5 354/39/5 355/38/5
f 352/2/2 342/3/2 340/3/2 360/2/2
f 349/29/3 344/29/3 359/29/3 361/29/3
f 355/38/1 354/39/1 361/1/1 359/50/1
f 372/68/24 364/65/24 371/64/24 374/69/24
f 374/69/25 371/64/25 370/63/25 375/70/25
f 375/70/26 370/63/26 369/62/26 376/71/26
f 376/71/27 369/62/27 368/61/27 377/72/27
f 377/72/28 368/61/28 367/60/28 378/73/28
f 378/73/29 367/60/29 363/59/29 373/74/29
f 363/59/2 352/2/2 360/2/2 373/74/2
f 348/39/5 364/65/5 372/68/5 354/39/5
f 354/39/1 372/68/1 374/69/1 375/70/1 376/71/1 377/72/1 378/73/1 373/74/1 360/2/1 361/1/1
usemtl Lineas_blancas
f 94/9/1 95/10/1 96/11/1 97/12/1
f 58/20/1 59/21/1 60/22/1 61/23/1
f 62/25/1 63/26/1 64/27/1 65/28/1
f 66/30/1 67/31/1 68/32/1 69/33/1
f 70/34/1 71/35/1 72/36/1 73/37/1
f 74/40/1 75/41/1 76/42/1 77/43/1
f 78/51/1 79/52/1 80/53/1 81/54/1
f 98/55/1 99/56/1 100/57/1 101/58/1
f 102/90/1 103/91/1 104/92/1 105/93/1
f 106/94/1 107/95/1 108/96/1 109/97/1
f 110/98/1 111/99/1 112/100/1 113/101/1
f 114/102/1 115/103/1 116/104/1 117/105/1
f 205/9/1 208/12/1 207/11/1 206/10/1
f 169/20/1 172/23/1 171/22/1 170/21/1
f 173/25/1 176/28/1 175/27/1 174/26/1
f 177/30/1 180/33/1 179/32/1 178/31/1
f 181/34/1 184/37/1 183/36/1 182/35/1
f 185/40/1 188/43/1 187/42/1 186/41/1
f 189/51/1 192/54/1 191/53/1 190/52/1
f 209/55/1 212/58/1 211/57/1 210/56/1
f 213/90/1 216/93/1 215/92/1 214/91/1
f 217/94/1 220/97/1 219/96/1 218/95/1
f 221/98/1 224/101/1 223/100/1 222/99/1
f 225/102/1 228/105/1 227/104/1 226/103/1
f 316/9/1 319/12/1 318/11/1 317/10/1
f 281/20/1 284/23/1 283/22/1 282/21/1
f 285/25/1 288/28/1 287/27/1 286/26/1
f 289/30/1 292/33/1 291/32/1 290/31/1
f 293/34/1 296/37/1 295/36/1 294/35/1
f 297/40/1 300/43/1 299/42/1 298/41/1
f 301/51/1 304/54/1 303/53/1 302/52/1
f 320/55/1 323/58/1 322/57/1 321/56/1
f 324/90/1 327/93/1 326/92/1 325/91/1
f 328/94/1 331/97/1 330/96/1 329/95/1
f 332/98/1 335/101/1 334/100/1 333/99/1
f 336/102/1 339/105/1 338/104/1 337/103/1
f 422/9/1 423/10/1 424/11/1 425/12/1
f 387/20/1 388/21/1 389/22/1 390/23/1
f 391/25/1 392/26/1 393/27/1 394/28/1
f 395/30/1 396/31/1 397/32/1 398/33/1
f 399/34/1 400/35/1 401/36/1 402/37/1
f 403/40/1 404/41/1 405/42/1 406/43/1
f 407/51/1 408/52/1 409/53/1 410/54/1
f 426/55/1 427/56/1 428/57/1 429/58/1
f 430/90/1 431/91/1 432/92/1 433/93/1
f 434/94/1 435/95/1 436/96/1 437/97/1
f 438/98/1 439/99/1 440/100/1 441/101/1
f 442/102/1 443/103/1 444/104/1 445/105/1
