# Blender 5.2.2 LTS
# www.blender.org
mtllib Untitled.mtl
o Cube
v 1.994320 1.000000 -2.114413
v 1.994320 -1.000000 -2.114413
v 1.994320 -1.000000 3.228826
v -1.994320 1.000000 -2.114413
v -1.994320 -1.000000 -2.114413
v -1.994320 -1.000000 3.228826
vn -0.0000 0.9365 0.3506
vn -1.0000 -0.0000 -0.0000
vn -0.0000 -1.0000 -0.0000
vn 1.0000 -0.0000 -0.0000
vn -0.0000 -0.0000 -1.0000
vt 0.625000 0.500000
vt 0.875000 0.500000
vt 0.875000 0.750000
vt 0.625000 0.750000
vt 0.625000 0.000000
vt 0.625000 0.250000
vt 0.375000 0.250000
vt 0.125000 0.500000
vt 0.375000 0.500000
vt 0.375000 0.750000
vt 0.125000 0.750000
s 0
usemtl Material
f 1/1/1 4/2/1 6/3/1 3/4/1
f 6/5/2 4/6/2 5/7/2
f 5/8/3 2/9/3 3/10/3 6/11/3
f 2/9/4 1/1/4 3/10/4
f 5/7/5 4/6/5 1/1/5 2/9/5
